<svg xmlns="http://www.w3.org/2000/svg" version="1.1" xmlns:xlink="http://www.w3.org/1999/xlink" xmlns:svgjs="http://svgjs.dev/svgjs" width="1000" height="623" viewBox="0 0 1000 623"><g transform="matrix(1,0,0,1,-0.6060606060606233,0.2522267206477409)"><svg viewBox="0 0 396 247" data-background-color="#ffffff" preserveAspectRatio="xMidYMid meet" height="623" width="1000" xmlns="http://www.w3.org/2000/svg" xmlns:xlink="http://www.w3.org/1999/xlink"><g id="tight-bounds" transform="matrix(1,0,0,1,0.2400000000000091,-0.09999999999999432)"><svg viewBox="0 0 395.52 247.2" height="247.2" width="395.52"><g><svg></svg></g><g><svg viewBox="0 0 395.52 247.2" height="247.2" width="395.52"><g><g><path d="M102.541 247.2h-25.862l8.545-74.869 25.571 0zM104.892 0h27.206l23.072 74.869h-20.939l-9.259-31.123-3.432 31.123-25.193 0zM197.928 213.613l12.462-41.282 21.286 0-21.657 74.869h-24.518l-22.274-74.869 21.979 0zM262.415 0h27.541l8.748 74.869-25.496 0-3.788-33.016-9.551 33.016-20.056 0zM318.841 247.2h-25.862l-8.59-74.869 25.704 0z" fill="#d71a1a" fill-rule="nonzero" stroke="none" stroke-width="1" stroke-linecap="butt" stroke-linejoin="miter" stroke-miterlimit="10" stroke-dasharray="" stroke-dashoffset="0" font-family="none" font-weight="none" font-size="none" text-anchor="none" style="mix-blend-mode: normal" data-fill-palette-color="tertiary"></path></g></g><g transform="matrix(1,0,0,1,0,87.27804237161712)"><svg viewBox="0 0 395.52 72.64391525676575" height="72.64391525676575" width="395.52"><g><svg viewBox="0 0 503.87357668650066 92.5448761249434" height="72.64391525676575" width="395.52"><g transform="matrix(1,0,0,1,0,12.790210810321412)"><svg viewBox="0 0 395.52 66.96445450430058" height="66.96445450430058" width="395.52"><g><svg viewBox="0 0 395.52 66.96445450430058" height="66.96445450430058" width="395.52"><g><svg viewBox="0 0 395.52 66.96445450430058" height="66.96445450430058" width="395.52"><g transform="matrix(1,0,0,1,0,0)"><svg width="395.52" viewBox="2.85 -37.1 220.88 37.4" height="66.96445450430058" data-palette-color="#d71a1a"><path d="M6.7 0L2.85 0 7.05-36.8 11.1-36.8 20.9-5 30.5-36.8 34.6-36.8 38.9 0 35.05 0 31.35-32.25 32-32.15 22.7 0 19.05 0 9.5-32.1 10.25-32.2 6.7 0ZM57.9 0.3L57.9 0.3Q54.35 0.3 51.67-0.38 49-1.05 47.22-2.95 45.45-4.85 44.57-8.55 43.7-12.25 43.7-18.25L43.7-18.25Q43.7-24.25 44.6-27.98 45.5-31.7 47.3-33.68 49.1-35.65 51.75-36.38 54.4-37.1 57.9-37.1L57.9-37.1Q61.5-37.1 64.17-36.38 66.85-35.65 68.62-33.68 70.4-31.7 71.25-27.98 72.1-24.25 72.1-18.25L72.1-18.25Q72.1-12.25 71.22-8.55 70.35-4.85 68.57-2.95 66.8-1.05 64.15-0.38 61.5 0.3 57.9 0.3ZM57.9-3.25L57.9-3.25Q60.7-3.25 62.65-3.8 64.6-4.35 65.82-5.93 67.05-7.5 67.6-10.45 68.15-13.4 68.15-18.25L68.15-18.25Q68.15-23.3 67.57-26.35 67-29.4 65.77-30.95 64.55-32.5 62.62-33 60.7-33.5 57.9-33.5L57.9-33.5Q55.3-33.5 53.37-33 51.45-32.5 50.17-30.95 48.9-29.4 48.27-26.35 47.65-23.3 47.65-18.25L47.65-18.25Q47.65-13.4 48.17-10.45 48.7-7.5 49.9-5.93 51.1-4.35 53.07-3.8 55.05-3.25 57.9-3.25ZM93.7 0L88.6 0 76-36.8 80.1-36.8 91.2-4.15 102.25-36.8 106.3-36.8 93.7 0ZM115.84 0L111.84 0 111.84-36.8 115.84-36.8 115.84 0ZM131.34 0.2L131.34 0.2Q130.14 0.2 128.79-0.03 127.44-0.25 126.24-0.95 125.04-1.65 124.29-3.08 123.54-4.5 123.54-6.95L123.54-6.95 123.54-29.4Q123.54-31.55 124.17-32.98 124.79-34.4 125.84-35.23 126.89-36.05 128.19-36.43 129.49-36.8 130.79-36.8L130.79-36.8Q133.89-36.75 136.54-36.68 139.19-36.6 141.57-36.52 143.94-36.45 146.19-36.35L146.19-36.35 146.19-33.15 131.79-33.15Q129.84-33.15 128.69-32.1 127.54-31.05 127.54-28.75L127.54-28.75 127.54-20.05 143.99-19.8 143.99-16.75 127.54-16.5 127.54-7.85Q127.54-6 128.17-5.05 128.79-4.1 129.84-3.8 130.89-3.5 131.99-3.5L131.99-3.5 146.19-3.5 146.19-0.3Q143.89-0.15 141.37-0.05 138.84 0.05 136.32 0.1 133.79 0.15 131.34 0.2ZM163.34 0.3L163.34 0.3Q162.24 0.3 160.71 0.23 159.19 0.15 157.59 0.03 155.99-0.1 154.56-0.25 153.14-0.4 152.19-0.6L152.19-0.6 152.19-3.65Q153.44-3.55 155.24-3.45 157.04-3.35 159.11-3.3 161.19-3.25 163.19-3.25L163.19-3.25Q165.44-3.25 167.24-3.7 169.04-4.15 170.11-5.35 171.19-6.55 171.19-8.8L171.19-8.8 171.19-11.3Q171.19-13.85 169.89-15.18 168.59-16.5 165.69-16.5L165.69-16.5 161.74-16.5Q157.19-16.5 154.61-18.5 152.04-20.5 152.04-25.4L152.04-25.4 152.04-27.5Q152.04-32.7 154.84-34.9 157.64-37.1 162.74-37.1L162.74-37.1Q164.34-37.1 166.34-36.93 168.34-36.75 170.21-36.52 172.09-36.3 173.34-36.05L173.34-36.05 173.34-33Q171.14-33.2 168.36-33.35 165.59-33.5 163.14-33.5L163.14-33.5Q160.89-33.5 159.24-32.98 157.59-32.45 156.71-31.13 155.84-29.8 155.84-27.35L155.84-27.35 155.84-25.65Q155.84-22.6 157.44-21.45 159.04-20.3 161.89-20.3L161.89-20.3 166.14-20.3Q169.19-20.3 171.14-19.2 173.09-18.1 174.04-16.18 174.99-14.25 174.99-11.75L174.99-11.75 174.99-8.9Q174.99-5.2 173.41-3.2 171.84-1.2 169.21-0.45 166.59 0.3 163.34 0.3ZM194.59-12.85L179.94-12.85 179.94-16.15 194.59-16.15 194.59-12.85ZM223.63 0L219.28 0 196.08-36.8 200.43-36.8 223.63 0ZM200.58 0L196.23 0 208.23-19.25 210.23-15.85 200.58 0ZM223.73-36.8L211.58-17.05 209.68-20.65 219.38-36.8 223.73-36.8Z" opacity="1" transform="matrix(1,0,0,1,0,0)" fill="#d71a1a" class="undefined-text-0" data-fill-palette-color="primary" id="text-0"></path></svg></g></svg></g></svg></g></svg></g><g transform="matrix(1,0,0,1,411.32870056155724,0)"><svg viewBox="0 0 92.5448761249434 92.5448761249434" height="92.5448761249434" width="92.5448761249434"><g data-palette-color="#ce261c"><rect width="25.295599474151192" height="92.5448761249434" fill="#ce261c" stroke="transparent" data-fill-palette-color="accent" x="0" fill-opacity="1"></rect><rect width="25.295599474151192" height="92.5448761249434" fill="#ce261c" stroke="transparent" data-fill-palette-color="accent" x="30.848292041647795" fill-opacity="0.75"></rect><rect width="25.295599474151192" height="92.5448761249434" fill="#ce261c" stroke="transparent" data-fill-palette-color="accent" x="61.69658408329559" fill-opacity="0.5"></rect></g></svg></g></svg></g></svg></g></svg></g><defs></defs></svg><rect width="395.52" height="247.2" fill="none" stroke="none" visibility="hidden"></rect></g></svg></g></svg>